<?xml version="1.0" encoding="UTF-8"?>
<svg width="24px" height="24px" viewBox="0 0 24 24" version="1.1" xmlns="http://www.w3.org/2000/svg" xmlns:xlink="http://www.w3.org/1999/xlink">
    <title>删除</title>
    <g id="页面-1" stroke="none" stroke-width="1" fill="none" fill-rule="evenodd">
        <g id="删除" transform="translate(2, 1.75)" fill="#FFFFFF">
            <path d="M11.8382263,0 C13.1552296,0 14.3182287,0.858952582 14.705554,2.11771226 L15.207778,3.74987793 L19.25,3.74987793 C19.6642132,3.74987793 20,4.08566427 20,4.49987793 C20,4.91409159 19.6642132,5.24987793 19.25,5.24987793 L18.2008839,5.24987793 L17.3905048,17.2029533 C17.2837601,18.7774315 15.9754677,20.0000286 14.3973761,20.0000286 L5.60262156,20.0000286 C4.02452993,20.0000286 2.71623659,18.7774315 2.6094923,17.2029533 L1.79911435,5.24987793 L0.75,5.24987793 C0.335786432,5.24987793 0,4.91409159 0,4.49987793 C0,4.08566427 0.335786432,3.74987793 0.75,3.74987793 L4.79222441,3.74987793 L5.2944479,2.11771226 C5.68177319,0.858952582 6.84477282,0 8.16177559,0 L11.8382263,0 Z M6.36162996,3.74987793 L13.6383724,3.74987793 L13.2718906,2.55885601 C13.078228,1.92947626 12.4967279,1.5 11.8382263,1.5 L8.16177559,1.5 C7.50327396,1.5 6.92177439,1.92947626 6.72811174,2.55885601 L6.36162996,3.74987793 Z M3.30255771,5.24987793 L4.10605717,17.10149 C4.15942907,17.8887291 4.81357574,18.5000305 5.60262156,18.5000305 L14.3973761,18.5000305 C15.1864223,18.5000305 15.8405685,17.8887291 15.8939409,17.10149 L16.6974392,5.24987793 L3.30255771,5.24987793 Z M8,8.25 C8.41421318,8.25 8.75,8.58578682 8.75,9 L8.75,14 C8.75,14.4142132 8.41421318,14.75 8,14.75 C7.58578634,14.75 7.25,14.4142132 7.25,14 L7.25,9 C7.25,8.58578682 7.58578634,8.25 8,8.25 Z M12,8.25 C12.4142132,8.25 12.75,8.58578682 12.75,9 L12.75,14 C12.75,14.4142132 12.4142132,14.75 12,14.75 C11.5857868,14.75 11.25,14.4142132 11.25,14 L11.25,9 C11.25,8.58578682 11.5857868,8.25 12,8.25 Z" id="形状"></path>
        </g>
    </g>
</svg>