<?xml version="1.0" encoding="UTF-8"?>
<svg width="24px" height="24px" viewBox="0 0 24 24" version="1.1" xmlns="http://www.w3.org/2000/svg" xmlns:xlink="http://www.w3.org/1999/xlink">
    <title>复制</title>
    <g id="页面-1" stroke="none" stroke-width="1" fill="none" fill-rule="evenodd">
        <g id="复制" transform="translate(3.25, 2.5)" fill="#FFFFFF">
            <path d="M0,16.25 L0,6.25000095 C0,5.42157332 0.292893251,4.71446625 0.878679752,4.12867975 C1.46446625,3.54289325 2.171573,3.25 3,3.25 L11.749999,3.25 C12.5784273,3.25 13.2855342,3.54289325 13.8713198,4.12867975 C14.457106,4.71446689 14.7499994,5.42157364 14.75,6.25 L14.75,16.25 C14.75,17.0784276 14.4571069,17.7855339 13.8713207,18.3713188 C13.2855339,18.9571063 12.578427,19.25 11.75,19.25 L3,19.25 C2.17157396,19.25 1.46446721,18.9571063 0.878679752,18.3713188 C0.292893251,17.7855339 0,17.0784276 0,16.25 Z M1.5,16.25 C1.5,16.6642138 1.64644663,17.0177676 1.93933988,17.3106613 C2.23223313,17.6035538 2.5857865,17.75 3,17.75 L11.75,17.75 C12.1642132,17.75 12.5177663,17.6035538 12.8106594,17.3106613 C13.1035531,17.0177663 13.25,16.6642125 13.25,16.25 L13.25,6.25 C13.25,5.8357865 13.1035535,5.48223305 12.8106604,5.18933964 C12.5177673,4.89644655 12.1642135,4.75 11.749999,4.75 L3,4.75 C2.5857865,4.75 2.23223313,4.8964467 1.93933988,5.18934011 C1.64644663,5.48223321 1.5,5.83578682 1.5,6.25000095 L1.5,16.25 Z M14.250001,0 L6.25,0 C5.83578634,0 5.5,0.335786402 5.5,0.75 C5.5,1.16421366 5.83578634,1.5 6.25,1.5 L14.250001,1.5 C14.8713217,1.5 15.401652,1.71966998 15.840992,2.15900993 C16.2803307,2.59834957 16.5,3.12867959 16.5,3.75 L16.5,12.75 C16.5,13.1642132 16.8357887,13.5 17.25,13.5 C17.6642151,13.5 18,13.1642132 18,12.75 L18,3.75 C18,2.71446673 17.6338838,1.83058329 16.9016514,1.09834969 C16.169419,0.366116563 15.2855355,0 14.250001,0 Z" id="形状"></path>
        </g>
    </g>
</svg>