<?xml version="1.0" encoding="UTF-8"?>
<svg width="48px" height="48px" viewBox="0 0 48 48" version="1.1" xmlns="http://www.w3.org/2000/svg" xmlns:xlink="http://www.w3.org/1999/xlink">
    <title>暂无收藏</title>
    <g id="暂无收藏" stroke="none" stroke-width="1" fill="none" fill-rule="evenodd">
        <g id="3px" transform="translate(3.5, 6.5)" fill="#6AFFA0">
            <path d="M28.6472702,0.00512121944 L29,0 C35.6274185,0 41,5.37258291 41,12 C41,20.9866104 34.8028526,29.2930222 22.6324329,36.9480629 C21.3277683,37.7672119 19.6687679,37.7664528 18.3677921,36.9458351 C6.19778347,29.2935009 0,20.9870625 0,12 C0,5.37258291 5.37258291,0 12,0 C15.1825256,0 18.1580563,1.24883616 20.3634186,3.39367437 L20.5,3.52999997 L20.6365337,3.39363384 C22.7603073,1.32824969 25.5981522,0.0937336758 28.6472702,0.00512121944 Z M38,12 C38,7.02943707 33.970562,3 29,3 C26.0808506,3 23.3980198,4.39779854 21.7133446,6.716012 C21.1143379,7.54028225 19.8854275,7.54025698 19.2864552,6.71596241 C17.6019669,4.39780569 14.9191589,3 12,3 C7.02943707,3 3,7.02943707 3,12 C3,19.7690887 8.58010101,27.247694 19.9664974,34.4073067 C20.2927418,34.6130905 20.7092113,34.6132812 21.0361881,34.4079857 C32.4203644,27.2474804 38,19.7687569 38,12 Z" id="形状"></path>
            <path d="M38,12 C38,7.02943707 33.970562,3 29,3 C26.0808506,3 23.3980198,4.39779854 21.7133446,6.716012 C21.1143379,7.54028225 19.8854275,7.54025698 19.2864552,6.71596241 C17.6019669,4.39780569 14.9191589,3 12,3 C7.02943707,3 3,7.02943707 3,12 C3,19.7690887 8.58010101,27.247694 19.9664974,34.4073067 C20.2927418,34.6130905 20.7092113,34.6132812 21.0361881,34.4079857 C32.4203644,27.2474804 38,19.7687569 38,12 Z" id="形状" fill-opacity="0.2" fill-rule="nonzero"></path>
        </g>
    </g>
</svg>