<?xml version="1.0" encoding="UTF-8"?>
<svg width="32px" height="32px" viewBox="0 0 32 32" version="1.1" xmlns="http://www.w3.org/2000/svg" xmlns:xlink="http://www.w3.org/1999/xlink">
    <title>3px</title>
    <g id="页面-1" stroke="none" stroke-width="1" fill="none" fill-rule="evenodd">
        <g id="3px" transform="translate(5.3333, 5.3333)" fill="#FFFFFF" fill-rule="nonzero">
            <path d="M10.6666667,9.25245349 L1.70731227,0.293098847 L1.70731227,0.293098847 C1.51957035,0.105356852 1.26521643,0 1,0 C0.447715203,0 0,0.447715203 0,1 C0,1.26521643 0.105356852,1.51957035 0.292893251,1.70710675 L0.292893251,1.70710675 L9.25245349,10.6666667 L0.29374059,19.6253802 L0.292893728,19.6262271 C0.105357071,19.8137627 0,20.0681165 0,20.3333333 C0,20.8856176 0.447715203,21.3333333 1,21.3333333 C1.26521659,21.3333333 1.51957035,21.2279765 1.70710627,21.0404396 L10.6666667,12.0808792 L19.6262271,21.0404396 C19.8137627,21.2279765 20.0681165,21.3333333 20.3333333,21.3333333 C20.8856176,21.3333333 21.3333333,20.8856176 21.3333333,20.3333333 C21.3333333,20.0681165 21.2279765,19.8137627 21.0404396,19.6262271 L12.0808792,10.6666667 L21.0402349,1.70731227 L21.0402349,1.70731227 C21.2279765,1.51957035 21.3333333,1.26521643 21.3333333,1 C21.3333333,0.447715203 20.8856176,0 20.3333333,0 C20.0681165,0 19.8137627,0.105356872 19.6262271,0.292893251 L19.6262271,0.292893251 L10.6666667,9.25245349 Z" id="形状"></path>
        </g>
    </g>
</svg>