<?xml version="1.0" encoding="UTF-8"?>
<svg width="20px" height="20px" viewBox="0 0 20 20" version="1.1" xmlns="http://www.w3.org/2000/svg" xmlns:xlink="http://www.w3.org/1999/xlink">
    <title>添加情绪词</title>
    <g id="页面-1" stroke="none" stroke-width="1" fill="none" fill-rule="evenodd">
        <g id="添加情绪词" transform="translate(2.0833, 2.0833)" fill="#6AFFA0" fill-rule="nonzero">
            <path d="M8.75,0.833333333 C8.75,0.373096044 8.37690353,0 7.91666667,0 C7.456429,0 7.08333333,0.373096044 7.08333333,0.833333333 L7.08333333,7.08333333 L0.833333333,7.08333333 C0.373096044,7.08333333 0,7.456429 0,7.91666667 C0,8.37690353 0.373096044,8.75 0.833333333,8.75 L7.08333333,8.75 L7.08333333,15 C7.08333333,15.4602369 7.456429,15.8333333 7.91666667,15.8333333 C8.37690353,15.8333333 8.75,15.4602369 8.75,15 L8.75,8.75 L15,8.75 C15.4602369,8.75 15.8333333,8.37690353 15.8333333,7.91666667 C15.8333333,7.456429 15.4602369,7.08333333 15,7.08333333 L8.75,7.08333333 L8.75,0.833333333 Z" id="形状"></path>
        </g>
    </g>
</svg>