<?xml version="1.0" encoding="UTF-8"?>
<svg width="24px" height="24px" viewBox="0 0 24 24" version="1.1" xmlns="http://www.w3.org/2000/svg" xmlns:xlink="http://www.w3.org/1999/xlink">
    <title>添加收藏</title>
    <g id="页面-1" stroke="none" stroke-width="1" fill="none" fill-rule="evenodd">
        <g id="添加收藏" transform="translate(1.75, 3.25)" fill="#FFFFFF">
            <path d="M14.3236351,0.00256060972 L14.5,0 C17.8137093,0 20.5,2.68629146 20.5,6 C20.5,10.4933052 17.4014263,14.6465111 11.3162165,18.4740314 C10.6638842,18.883606 9.83438396,18.8832264 9.18389606,18.4729176 C3.09889174,14.6467505 0,10.4935312 0,6 C0,2.68629146 2.68629146,0 6,0 C7.59126282,0 9.07902813,0.62441808 10.1817093,1.69683719 L10.25,1.76499999 L10.3182669,1.69681692 C11.3801537,0.664124846 12.7990761,0.0468668379 14.3236351,0.00256060972 Z M19,6 C19,3.51471853 16.985281,1.5 14.5,1.5 C13.0404253,1.5 11.6990099,2.19889927 10.8566723,3.358006 C10.557169,3.77014112 9.94271374,3.77012849 9.64322758,3.3579812 C8.80098343,2.19890285 7.45957947,1.5 6,1.5 C3.51471853,1.5 1.5,3.51471853 1.5,6 C1.5,9.88454437 4.29005051,13.623847 9.98324871,17.2036533 C10.1463709,17.3065453 10.3546057,17.3066406 10.5180941,17.2039928 C16.2101822,13.6237402 19,9.88437843 19,6 Z" id="形状"></path>
        </g>
    </g>
</svg>