<?xml version="1.0" encoding="UTF-8"?>
<svg width="16px" height="16px" viewBox="0 0 16 16" version="1.1" xmlns="http://www.w3.org/2000/svg" xmlns:xlink="http://www.w3.org/1999/xlink">
    <title>3px</title>
    <g id="页面-1" stroke="none" stroke-width="1" fill="none" fill-rule="evenodd">
        <g id="3px" transform="translate(1.3333, 1.3333)" fill="#FFFFFF">
            <path d="M12.865256,9.12063154 C13.1773076,8.33240742 13.3333333,7.51441913 13.3333333,6.66666667 C13.3333333,5.81891505 13.1773076,5.00092687 12.865256,4.21270212 C12.5264337,3.35685571 12.0315853,2.60349549 11.3807106,1.95262146 C10.7298351,1.3017469 9.9764754,0.806899084 9.12063154,0.468078017 C8.33240488,0.156026006 7.51441659,0 6.66666667,0 C5.81891802,0 5.00092983,0.156026006 4.21270212,0.468078017 C3.35685571,0.806899614 2.60349549,1.30174743 1.95262146,1.95262146 C1.30174764,2.60349528 0.806899826,3.3568555 0.468078017,4.21270212 C0.156026006,5.00092983 0,5.81891802 0,6.66666667 C0,7.51441616 0.156026006,8.33240424 0.468078017,9.1206309 C0.806899932,9.97647773 1.30174775,10.7298376 1.95262146,11.3807106 C2.60349698,12.031587 3.35685719,12.5264354 4.21270212,12.865256 C5.00092729,13.1773076 5.81891547,13.3333333 6.66666667,13.3333333 C7.51441871,13.3333333 8.33240679,13.1773076 9.1206309,12.865256 C9.97647773,12.5264337 10.7298376,12.0315853 11.3807106,11.3807106 C12.031587,10.7298334 12.5264354,9.9764737 12.865256,9.12063154 Z M11.9354668,4.58079688 C12.200712,5.25078975 12.3333342,5.94607968 12.3333333,6.66666667 C12.3333333,7.38725493 12.2007111,8.08254517 11.9354668,8.75253741 C11.6474681,9.48000569 11.2268473,10.1203613 10.6736043,10.6736043 C10.1203622,11.2268465 9.48000632,11.6474673 8.75253677,11.9354668 C8.08254496,12.200712 7.38725493,12.3333342 6.66666667,12.3333333 C5.94607968,12.3333325 5.25078975,12.2007103 4.58079688,11.9354668 C3.85332754,11.6474673 3.21297126,11.2268465 2.65972805,10.6736043 C2.10648568,10.1203622 1.68586508,9.48000632 1.39786625,8.75253677 C1.13262208,8.08254369 1,7.38725366 1,6.66666667 C1,5.94607968 1.13262208,5.25078975 1.39786625,4.58079688 C1.68586508,3.85332669 2.10648568,3.21297042 2.65972805,2.65972805 C3.21297084,2.10648568 3.85332712,1.68586508 4.58079688,1.39786625 C5.25078975,1.13262208 5.94607968,1 6.66666667,1 C7.3872545,1 8.08254475,1.13262208 8.75253741,1.39786625 C9.48000654,1.68586487 10.1203622,2.10648547 10.6736043,2.65972805 C11.2268465,3.21297126 11.6474673,3.85332754 11.9354668,4.58079688 Z M4.00001272,4.49998728 C4.00001272,4.36737919 4.05269114,4.24020227 4.14645926,4.14643415 C4.24022738,4.05266571 4.3674043,3.99998728 4.50001272,3.99998728 C4.63262081,3.9999876 4.75979773,4.05266603 4.85356585,4.14643415 L6.6666921,5.95955976 L8.47979228,4.14645926 C8.57356135,4.05269082 8.70073827,4.0000124 8.83334605,4.00001272 C8.96595446,4.00001272 9.09313138,4.05269114 9.18689919,4.14645926 C9.38216146,4.34172153 9.38216146,4.6583039 9.18689919,4.85356585 L7.37379837,6.66666667 L9.18689919,8.47976748 C9.38216146,8.67502975 9.38216146,8.99161212 9.18689982,9.18687439 C8.99163755,9.38213666 8.67505455,9.38213666 8.47979228,9.18687439 L6.6666921,7.37377294 L4.85356585,9.18689919 C4.65830358,9.38216146 4.34172122,9.38216146 4.14645926,9.18689982 C3.95119699,8.99163755 3.95119699,8.67505455 4.14645926,8.47979228 L5.95958519,6.66666667 L4.14645926,4.85354074 C4.05269114,4.75977262 4.00001272,4.6325957 4.00001272,4.49998728 Z" id="形状"></path>
        </g>
    </g>
</svg>